<svg xmlns="http://www.w3.org/2000/svg" width="600" height="180" viewBox="0 0 600 180">
  <rect x="0" y="0" width="600" height="180" rx="10" ry="10" fill="#1a1a2e"/>
  <text x="300" y="32" font-family="sans-serif" font-size="16" font-weight="bold" fill="#e0e0e0" text-anchor="middle">IconquerCLILib — Releases</text>
  <line x1="60" y1="100" x2="540" y2="100" stroke="#0f3460" stroke-width="3" stroke-linecap="round"/>
  <circle cx="60" cy="100" r="6" fill="#00d4ff"/>
  <circle cx="60" cy="100" r="3" fill="#1a1a2e"/>
  <text x="60" y="82" font-family="sans-serif" font-size="12" font-weight="bold" fill="#e0e0e0" text-anchor="middle">v0.5.0</text>
<text x="60" y="68" font-family="sans-serif" font-size="9" fill="#8892b0" text-anchor="middle">2026-04-10</text>
  <circle cx="180" cy="100" r="6" fill="#00d4ff"/>
  <circle cx="180" cy="100" r="3" fill="#1a1a2e"/>
  <text x="180" y="128" font-family="sans-serif" font-size="12" font-weight="bold" fill="#e0e0e0" text-anchor="middle">IconquerCLI@v0.4.0</text>
<text x="180" y="142" font-family="sans-serif" font-size="9" fill="#8892b0" text-anchor="middle">2026-04-10</text>
  <circle cx="300" cy="100" r="6" fill="#00d4ff"/>
  <circle cx="300" cy="100" r="3" fill="#1a1a2e"/>
  <text x="300" y="82" font-family="sans-serif" font-size="12" font-weight="bold" fill="#e0e0e0" text-anchor="middle">IconquerCLI@v0.3.0</text>
<text x="300" y="68" font-family="sans-serif" font-size="9" fill="#8892b0" text-anchor="middle">2026-04-10</text>
  <circle cx="420" cy="100" r="6" fill="#00d4ff"/>
  <circle cx="420" cy="100" r="3" fill="#1a1a2e"/>
  <text x="420" y="128" font-family="sans-serif" font-size="12" font-weight="bold" fill="#e0e0e0" text-anchor="middle">IconquerCLI@v0.2.0</text>
<text x="420" y="142" font-family="sans-serif" font-size="9" fill="#8892b0" text-anchor="middle">2026-04-08</text>
  <circle cx="540" cy="100" r="6" fill="#00d4ff"/>
  <circle cx="540" cy="100" r="3" fill="#1a1a2e"/>
  <text x="540" y="82" font-family="sans-serif" font-size="12" font-weight="bold" fill="#e0e0e0" text-anchor="middle">IconquerCLI@v0.1.0</text>
<text x="540" y="68" font-family="sans-serif" font-size="9" fill="#8892b0" text-anchor="middle">2026-04-08</text>
</svg>