<?xml version="1.0" encoding="UTF-8" standalone="no"?>
<!DOCTYPE svg PUBLIC "-//W3C//DTD SVG 1.1//EN" "http://www.w3.org/Graphics/SVG/1.1/DTD/svg11.dtd">
<svg width="100%" height="100%" viewBox="0 0 55 55" version="1.1" xmlns="http://www.w3.org/2000/svg" xmlns:xlink="http://www.w3.org/1999/xlink" xml:space="preserve" xmlns:serif="http://www.serif.com/" style="fill-rule:evenodd;clip-rule:evenodd;stroke-linejoin:round;stroke-miterlimit:2;">
    <path d="M27.5,25.73C25.9,22.63 21.56,16.84 17.52,13.99C13.65,11.26 12.17,11.73 11.21,12.17C10.09,12.68 9.89,14.4 9.89,15.41C9.89,16.42 10.44,23.71 10.81,24.92C12.01,28.94 16.26,30.3 20.18,29.86C20.38,29.83 20.58,29.8 20.79,29.78C20.59,29.81 20.38,29.84 20.18,29.86C14.44,30.71 9.33,32.8 16.03,40.25C23.39,47.87 26.12,38.62 27.52,33.92C28.92,38.61 30.53,47.53 38.87,40.25C45.14,33.92 40.59,30.71 34.85,29.86C34.65,29.84 34.44,29.81 34.24,29.78C34.45,29.81 34.65,29.83 34.85,29.86C38.77,30.3 43.03,28.94 44.22,24.92C44.58,23.7 45.14,16.42 45.14,15.41C45.14,14.4 44.94,12.68 43.82,12.17C42.85,11.73 41.38,11.26 37.51,13.99C33.44,16.85 29.1,22.63 27.5,25.73Z" style="fill-rule:nonzero;"/>
</svg>
