<?xml version="1.0" encoding="UTF-8" standalone="no"?>
<!DOCTYPE svg PUBLIC "-//W3C//DTD SVG 1.1//EN" "http://www.w3.org/Graphics/SVG/1.1/DTD/svg11.dtd">
<svg width="100%" height="100%" viewBox="0 0 1113 1113" version="1.1" xmlns="http://www.w3.org/2000/svg" xmlns:xlink="http://www.w3.org/1999/xlink" xml:space="preserve" xmlns:serif="http://www.serif.com/" style="fill-rule:evenodd;clip-rule:evenodd;stroke-linejoin:round;stroke-miterlimit:2;">
    <g transform="matrix(4.16667,0,0,4.16667,-514.804,-468.971)">
        <path d="M375.716,379.447C383.851,379.447 390.446,372.852 390.446,364.717L390.446,127.283C390.446,119.146 383.851,112.553 375.716,112.553L138.284,112.553C130.146,112.553 123.553,119.146 123.553,127.283L123.553,364.717C123.553,372.852 130.146,379.447 138.284,379.447L375.716,379.447Z" style="fill-rule:nonzero;"/>
    </g>
    <g transform="matrix(4.16667,0,0,4.16667,-514.804,-468.971)">
        <path d="M307.705,379.447L307.705,276.092L342.397,276.092L347.591,235.812L307.705,235.812L307.705,210.095C307.705,198.433 310.943,190.486 327.667,190.486L348.997,190.476L348.997,154.45C345.306,153.96 332.646,152.863 317.916,152.863C287.163,152.863 266.109,171.634 266.109,206.107L266.109,235.812L231.328,235.812L231.328,276.092L266.109,276.092L266.109,379.447L307.705,379.447Z" style="fill:white;fill-rule:nonzero;"/>
    </g>
</svg>
