<?xml version="1.0" encoding="UTF-8" standalone="no"?>
<!DOCTYPE svg PUBLIC "-//W3C//DTD SVG 1.1//EN" "http://www.w3.org/Graphics/SVG/1.1/DTD/svg11.dtd">
<svg width="100%" height="100%" viewBox="0 0 3365 3365" version="1.1" xmlns="http://www.w3.org/2000/svg" xmlns:xlink="http://www.w3.org/1999/xlink" xml:space="preserve" xmlns:serif="http://www.serif.com/" style="fill-rule:evenodd;clip-rule:evenodd;stroke-linejoin:round;stroke-miterlimit:2;">
    <g transform="matrix(1.33228,0,0,1.33228,-562.38,-563.616)">
        <path d="M1269.36,1689.67C1269.36,1459.54 1455.87,1272.93 1686,1272.93C1916.13,1272.93 2102.74,1459.54 2102.74,1689.67C2102.74,1919.8 1916.13,2106.41 1686,2106.41C1455.87,2106.41 1269.36,1919.8 1269.36,1689.67M1044.08,1689.67C1044.08,2044.2 1331.47,2331.59 1686,2331.59C2040.53,2331.59 2327.92,2044.2 2327.92,1689.67C2327.92,1335.14 2040.53,1047.75 1686,1047.75C1331.47,1047.75 1044.09,1335.12 1044.09,1689.67M2203.33,1022.3C2203.33,1022.32 2203.33,1022.34 2203.33,1022.36C2203.33,1104.66 2271.05,1172.38 2353.34,1172.38C2435.64,1172.38 2503.35,1104.66 2503.35,1022.36C2503.35,940.089 2435.67,872.381 2353.4,872.348L2353.34,872.348C2271.08,872.386 2203.4,940.043 2203.33,1022.3M1180.95,2707.24C1059.07,2701.69 992.829,2681.39 948.805,2664.24C890.439,2641.51 848.796,2614.45 805.012,2570.73C761.228,2527.01 734.125,2485.4 711.503,2427.04C694.342,2383.03 674.04,2316.77 668.5,2194.89C662.439,2063.11 661.229,2023.53 661.229,1689.69C661.229,1355.85 662.539,1316.38 668.5,1184.5C674.05,1062.62 694.502,996.479 711.503,952.345C734.225,893.98 761.288,852.336 805.012,808.552C848.736,764.768 890.339,737.666 948.805,715.044C992.809,697.882 1059.07,677.58 1180.95,672.04C1312.73,665.979 1352.31,664.769 1686,664.769C2019.69,664.769 2059.31,666.059 2191.2,672.06C2313.08,677.61 2379.21,698.062 2423.35,715.064C2481.71,737.686 2523.36,764.848 2567.14,808.572C2610.92,852.296 2637.93,894 2660.65,952.365C2677.81,996.369 2698.11,1062.63 2703.65,1184.52C2709.71,1316.4 2710.92,1355.87 2710.92,1689.71C2710.92,2023.55 2709.71,2063.02 2703.65,2194.91C2698.1,2316.79 2677.7,2383.03 2660.65,2427.06C2637.93,2485.42 2610.86,2527.07 2567.14,2570.75C2523.41,2614.43 2481.71,2641.54 2423.35,2664.26C2379.34,2681.42 2313.08,2701.72 2191.2,2707.26C2059.42,2713.32 2019.84,2714.53 1686,2714.53C1352.16,2714.53 1312.69,2713.32 1180.95,2707.26M1170.6,447.13C1037.52,453.19 946.584,474.292 867.167,505.195C784.97,537.108 715.294,579.922 645.718,649.388C576.141,718.854 533.438,788.54 501.525,870.838C470.622,950.305 449.52,1041.19 443.46,1174.28C437.299,1307.57 435.889,1350.18 435.889,1689.67C435.889,2029.16 437.299,2071.78 443.46,2205.07C449.52,2338.16 470.622,2429.04 501.525,2508.5C533.438,2590.7 576.151,2660.52 645.718,2729.95C715.284,2799.39 784.87,2842.14 867.167,2874.15C946.734,2905.05 1037.52,2926.15 1170.6,2932.21C1303.97,2938.27 1346.51,2939.78 1686,2939.78C2025.49,2939.78 2068.1,2938.37 2201.4,2932.21C2334.49,2926.15 2425.37,2905.05 2504.83,2874.15C2587.03,2842.14 2656.71,2799.42 2726.28,2729.95C2795.86,2660.49 2838.47,2590.7 2870.48,2508.5C2901.38,2429.04 2922.58,2338.15 2928.54,2205.07C2934.6,2071.68 2936.01,2029.16 2936.01,1689.67C2936.01,1350.18 2934.6,1307.57 2928.54,1174.28C2922.48,1041.18 2901.38,950.255 2870.48,870.838C2838.47,788.64 2795.75,718.964 2726.28,649.388C2656.82,579.812 2587.03,537.108 2504.93,505.195C2425.37,474.292 2334.48,453.09 2201.5,447.13C2068.18,441.039 2025.59,439.559 1686.15,439.559C1346.71,439.559 1304.02,440.969 1170.65,447.13" style="fill-rule:nonzero;"/>
    </g>
</svg>
