<svg xmlns="http://www.w3.org/2000/svg" width="600" height="200" viewBox="0 0 600 200">
  <rect x="0" y="0" width="600" height="200" rx="10" ry="10" fill="#1a1a2e"/>
  <text x="300" y="32" font-family="sans-serif" font-size="16" font-weight="bold" fill="#e0e0e0" text-anchor="middle">PersonalSiteLib — Commit Activity</text>
  <rect x="40" y="75" width="27" height="85" rx="2" ry="2" fill="#00d4ff" opacity="0.8"/>
<text x="53" y="174" font-family="sans-serif" font-size="9" fill="#8892b0" text-anchor="middle">Nov</text>
  <rect x="69" y="75" width="27" height="85" rx="2" ry="2" fill="#00d4ff" opacity="0.8"/>
  <rect x="98" y="75" width="27" height="85" rx="2" ry="2" fill="#00d4ff" opacity="0.8"/>
<text x="111" y="174" font-family="sans-serif" font-size="9" fill="#8892b0" text-anchor="middle">Jan</text>
  <rect x="127" y="75" width="27" height="85" rx="2" ry="2" fill="#00d4ff" opacity="0.8"/>
  <rect x="156" y="75" width="27" height="85" rx="2" ry="2" fill="#00d4ff" opacity="0.8"/>
<text x="169" y="174" font-family="sans-serif" font-size="9" fill="#8892b0" text-anchor="middle">Mar</text>
  <rect x="185" y="75" width="27" height="85" rx="2" ry="2" fill="#00d4ff" opacity="0.8"/>
  <rect x="214" y="75" width="27" height="85" rx="2" ry="2" fill="#00d4ff" opacity="0.8"/>
<text x="227" y="174" font-family="sans-serif" font-size="9" fill="#8892b0" text-anchor="middle">May</text>
  <rect x="243" y="75" width="27" height="85" rx="2" ry="2" fill="#00d4ff" opacity="0.8"/>
  <rect x="272" y="75" width="27" height="85" rx="2" ry="2" fill="#00d4ff" opacity="0.8"/>
<text x="285" y="174" font-family="sans-serif" font-size="9" fill="#8892b0" text-anchor="middle">Jul</text>
  <rect x="301" y="75" width="27" height="85" rx="2" ry="2" fill="#00d4ff" opacity="0.8"/>
  <rect x="330" y="75" width="27" height="85" rx="2" ry="2" fill="#00d4ff" opacity="0.8"/>
<text x="343" y="174" font-family="sans-serif" font-size="9" fill="#8892b0" text-anchor="middle">Sep</text>
  <rect x="359" y="75" width="27" height="85" rx="2" ry="2" fill="#00d4ff" opacity="0.8"/>
  <rect x="388" y="75" width="27" height="85" rx="2" ry="2" fill="#00d4ff" opacity="0.8"/>
<text x="401" y="174" font-family="sans-serif" font-size="9" fill="#8892b0" text-anchor="middle">Nov</text>
  <rect x="417" y="75" width="27" height="85" rx="2" ry="2" fill="#00d4ff" opacity="0.8"/>
  <rect x="446" y="75" width="27" height="85" rx="2" ry="2" fill="#00d4ff" opacity="0.8"/>
<text x="459" y="174" font-family="sans-serif" font-size="9" fill="#8892b0" text-anchor="middle">Jan</text>
  <rect x="475" y="75" width="27" height="85" rx="2" ry="2" fill="#00d4ff" opacity="0.8"/>
  <rect x="504" y="75" width="27" height="85" rx="2" ry="2" fill="#00d4ff" opacity="0.8"/>
<text x="517" y="174" font-family="sans-serif" font-size="9" fill="#8892b0" text-anchor="middle">Mar</text>
  <rect x="533" y="75" width="27" height="85" rx="2" ry="2" fill="#00d4ff" opacity="0.8"/>
<text x="546" y="174" font-family="sans-serif" font-size="9" fill="#8892b0" text-anchor="middle">Apr</text>
  <text x="560" y="50" font-family="sans-serif" font-size="10" fill="#8892b0" text-anchor="end">~11/month (198 total)</text>
</svg>