<svg xmlns="http://www.w3.org/2000/svg" width="600" height="180" viewBox="0 0 600 180">
  <rect x="0" y="0" width="600" height="180" rx="10" ry="10" fill="#1a1a2e"/>
  <text x="300" y="32" font-family="sans-serif" font-size="16" font-weight="bold" fill="#e0e0e0" text-anchor="middle">SwiftCLIKit — Releases</text>
  <line x1="60" y1="100" x2="540" y2="100" stroke="#0f3460" stroke-width="3" stroke-linecap="round"/>
  <circle cx="60" cy="100" r="6" fill="#00d4ff"/>
  <circle cx="60" cy="100" r="3" fill="#1a1a2e"/>
  <text x="60" y="82" font-family="sans-serif" font-size="12" font-weight="bold" fill="#e0e0e0" text-anchor="middle">v1.14.0</text>
<text x="60" y="68" font-family="sans-serif" font-size="9" fill="#8892b0" text-anchor="middle">2026-04-11</text>
  <circle cx="88" cy="100" r="6" fill="#00d4ff"/>
  <circle cx="88" cy="100" r="3" fill="#1a1a2e"/>
  <text x="88" y="128" font-family="sans-serif" font-size="12" font-weight="bold" fill="#e0e0e0" text-anchor="middle">v1.13.0</text>
<text x="88" y="142" font-family="sans-serif" font-size="9" fill="#8892b0" text-anchor="middle">2026-04-11</text>
  <circle cx="116" cy="100" r="6" fill="#00d4ff"/>
  <circle cx="116" cy="100" r="3" fill="#1a1a2e"/>
  <text x="116" y="82" font-family="sans-serif" font-size="12" font-weight="bold" fill="#e0e0e0" text-anchor="middle">v1.12.0</text>
<text x="116" y="68" font-family="sans-serif" font-size="9" fill="#8892b0" text-anchor="middle">2026-04-11</text>
  <circle cx="144" cy="100" r="6" fill="#00d4ff"/>
  <circle cx="144" cy="100" r="3" fill="#1a1a2e"/>
  <text x="144" y="128" font-family="sans-serif" font-size="12" font-weight="bold" fill="#e0e0e0" text-anchor="middle">v1.11.0</text>
<text x="144" y="142" font-family="sans-serif" font-size="9" fill="#8892b0" text-anchor="middle">2026-04-11</text>
  <circle cx="172" cy="100" r="6" fill="#00d4ff"/>
  <circle cx="172" cy="100" r="3" fill="#1a1a2e"/>
  <text x="172" y="82" font-family="sans-serif" font-size="12" font-weight="bold" fill="#e0e0e0" text-anchor="middle">v1.10.0</text>
<text x="172" y="68" font-family="sans-serif" font-size="9" fill="#8892b0" text-anchor="middle">2026-04-11</text>
  <circle cx="200" cy="100" r="6" fill="#00d4ff"/>
  <circle cx="200" cy="100" r="3" fill="#1a1a2e"/>
  <text x="200" y="128" font-family="sans-serif" font-size="12" font-weight="bold" fill="#e0e0e0" text-anchor="middle">v1.9.0</text>
<text x="200" y="142" font-family="sans-serif" font-size="9" fill="#8892b0" text-anchor="middle">2026-04-11</text>
  <circle cx="228" cy="100" r="6" fill="#00d4ff"/>
  <circle cx="228" cy="100" r="3" fill="#1a1a2e"/>
  <text x="228" y="82" font-family="sans-serif" font-size="12" font-weight="bold" fill="#e0e0e0" text-anchor="middle">v1.8.0</text>
<text x="228" y="68" font-family="sans-serif" font-size="9" fill="#8892b0" text-anchor="middle">2026-04-10</text>
  <circle cx="256" cy="100" r="6" fill="#00d4ff"/>
  <circle cx="256" cy="100" r="3" fill="#1a1a2e"/>
  <text x="256" y="128" font-family="sans-serif" font-size="12" font-weight="bold" fill="#e0e0e0" text-anchor="middle">v1.7.0</text>
<text x="256" y="142" font-family="sans-serif" font-size="9" fill="#8892b0" text-anchor="middle">2026-04-11</text>
  <circle cx="284" cy="100" r="6" fill="#00d4ff"/>
  <circle cx="284" cy="100" r="3" fill="#1a1a2e"/>
  <text x="284" y="82" font-family="sans-serif" font-size="12" font-weight="bold" fill="#e0e0e0" text-anchor="middle">v1.4.0</text>
<text x="284" y="68" font-family="sans-serif" font-size="9" fill="#8892b0" text-anchor="middle">2026-04-11</text>
  <circle cx="312" cy="100" r="6" fill="#00d4ff"/>
  <circle cx="312" cy="100" r="3" fill="#1a1a2e"/>
  <text x="312" y="128" font-family="sans-serif" font-size="12" font-weight="bold" fill="#e0e0e0" text-anchor="middle">v1.3.0</text>
<text x="312" y="142" font-family="sans-serif" font-size="9" fill="#8892b0" text-anchor="middle">2026-04-11</text>
  <circle cx="340" cy="100" r="6" fill="#00d4ff"/>
  <circle cx="340" cy="100" r="3" fill="#1a1a2e"/>
  <text x="340" y="82" font-family="sans-serif" font-size="12" font-weight="bold" fill="#e0e0e0" text-anchor="middle">v1.2.0</text>
<text x="340" y="68" font-family="sans-serif" font-size="9" fill="#8892b0" text-anchor="middle">2026-04-11</text>
  <circle cx="368" cy="100" r="6" fill="#00d4ff"/>
  <circle cx="368" cy="100" r="3" fill="#1a1a2e"/>
  <text x="368" y="128" font-family="sans-serif" font-size="12" font-weight="bold" fill="#e0e0e0" text-anchor="middle">v1.1.0</text>
<text x="368" y="142" font-family="sans-serif" font-size="9" fill="#8892b0" text-anchor="middle">2026-04-11</text>
  <circle cx="396" cy="100" r="6" fill="#00d4ff"/>
  <circle cx="396" cy="100" r="3" fill="#1a1a2e"/>
  <text x="396" y="82" font-family="sans-serif" font-size="12" font-weight="bold" fill="#e0e0e0" text-anchor="middle">v1.0.0</text>
<text x="396" y="68" font-family="sans-serif" font-size="9" fill="#8892b0" text-anchor="middle">2026-04-10</text>
  <circle cx="424" cy="100" r="6" fill="#00d4ff"/>
  <circle cx="424" cy="100" r="3" fill="#1a1a2e"/>
  <text x="424" y="128" font-family="sans-serif" font-size="12" font-weight="bold" fill="#e0e0e0" text-anchor="middle">v0.5.0</text>
<text x="424" y="142" font-family="sans-serif" font-size="9" fill="#8892b0" text-anchor="middle">2026-04-10</text>
  <circle cx="452" cy="100" r="6" fill="#00d4ff"/>
  <circle cx="452" cy="100" r="3" fill="#1a1a2e"/>
  <text x="452" y="82" font-family="sans-serif" font-size="12" font-weight="bold" fill="#e0e0e0" text-anchor="middle">v0.4.0</text>
<text x="452" y="68" font-family="sans-serif" font-size="9" fill="#8892b0" text-anchor="middle">2026-04-10</text>
  <circle cx="480" cy="100" r="6" fill="#00d4ff"/>
  <circle cx="480" cy="100" r="3" fill="#1a1a2e"/>
  <text x="480" y="128" font-family="sans-serif" font-size="12" font-weight="bold" fill="#e0e0e0" text-anchor="middle">v0.3.0</text>
<text x="480" y="142" font-family="sans-serif" font-size="9" fill="#8892b0" text-anchor="middle">2026-04-10</text>
  <circle cx="508" cy="100" r="6" fill="#00d4ff"/>
  <circle cx="508" cy="100" r="3" fill="#1a1a2e"/>
  <text x="508" y="82" font-family="sans-serif" font-size="12" font-weight="bold" fill="#e0e0e0" text-anchor="middle">v0.2.0</text>
<text x="508" y="68" font-family="sans-serif" font-size="9" fill="#8892b0" text-anchor="middle">2026-04-10</text>
  <circle cx="536" cy="100" r="6" fill="#00d4ff"/>
  <circle cx="536" cy="100" r="3" fill="#1a1a2e"/>
  <text x="536" y="128" font-family="sans-serif" font-size="12" font-weight="bold" fill="#e0e0e0" text-anchor="middle">v0.1.0</text>
<text x="536" y="142" font-family="sans-serif" font-size="9" fill="#8892b0" text-anchor="middle">2026-04-10</text>
</svg>