<?xml version="1.0" encoding="utf-8"?>
<!-- Generator: Adobe Illustrator 27.0.0, SVG Export Plug-In . SVG Version: 6.00 Build 0)  -->
<svg version="1.1" id="Layer_1" xmlns="http://www.w3.org/2000/svg" xmlns:xlink="http://www.w3.org/1999/xlink" x="0px" y="0px"
	 viewBox="0 0 533.5 335.1" style="enable-background:new 0 0 533.5 335.1;" xml:space="preserve">
<style type="text/css">
	.st0{fill:#9F1C2D;}
</style>
<g>
	<g>
		<path class="st0" d="M370,248.3h62.2L328.1,12.4l-52.2,24.1l36.4,82.1l-17,38.3L230.2,8.6l-52.7,23l42.4,94.8
			c-0.1,0.1-0.1,0.2-0.2,0.4c-26.1,59.8-58.2,76.2-61.3,77.4c-7.4,2.9-15.4,4.5-23.9,4.5c-2.6,0-5.1-0.2-7.6-0.4l-25.6,52
			c8.5,4.7,17.9,7.3,28,7.3c12.8,0,24.5-4.2,34.2-11.2l-0.1,0.2c0,0,24.1-11.7,49.9-75.4c0-0.1,9.5-20.4,14.6-33.4l0.5-1.5
			l45.4,102.1H336l-32-71.8l17-38.2L370,248.3L370,248.3z"/>
		<path class="st0" d="M0,320.3l5.3-5.8c1,1,2.2,2,3.8,3c1.6,1,3.5,1.5,5.6,1.5c0.8,0,1.7-0.2,2.5-0.5c0.8-0.3,1.5-0.8,2-1.4
			c0.5-0.6,0.8-1.3,0.8-2.2c0-1.4-0.7-2.4-2-3.2c-1.3-0.8-3.4-1.5-6.3-2.2c-2.8-0.7-5.1-1.9-6.9-3.7c-1.8-1.8-2.8-4-2.8-6.8
			c0-2.1,0.5-3.9,1.5-5.6s2.5-3.1,4.5-4.1c2-1,4.5-1.6,7.5-1.6c2.5,0,4.6,0.3,6.3,1c1.7,0.6,3.1,1.4,4.1,2.1c1,0.8,1.7,1.4,2.2,1.9
			l-4.8,5.3c-0.8-0.6-1.9-1.3-3.2-2.1s-2.9-1.2-4.7-1.2c-1.2,0-2.3,0.3-3.3,1c-1,0.7-1.5,1.5-1.5,2.5c0,1.2,0.7,2.3,2,3
			c1.3,0.8,3.1,1.4,5.5,1.9c1.8,0.4,3.5,1.1,5.2,2c1.7,0.9,3,2.1,4.1,3.7c1.1,1.6,1.6,3.6,1.6,6.2c0,2.2-0.6,4.2-1.9,5.9
			s-2.9,3.1-5.1,4.1s-4.5,1.5-7.2,1.5c-2.4,0-4.6-0.3-6.4-0.9c-1.9-0.6-3.5-1.4-4.9-2.3C2.1,322.3,1,321.3,0,320.3L0,320.3z"/>
		<path class="st0" d="M41.6,325.5v-36.7h8.3v14.1h15.9v-14.1h8.3v36.7h-8.3v-15.1H49.9v15.1H41.6z"/>
		<path class="st0" d="M105.7,326.4c-2.7,0-5.2-0.5-7.5-1.5s-4.3-2.3-6.1-4.1s-3.1-3.8-4.1-6.2c-1-2.3-1.4-4.9-1.4-7.6
			c0-2.7,0.5-5.3,1.4-7.6c1-2.3,2.3-4.4,4-6.1c1.7-1.8,3.8-3.1,6.1-4.1c2.3-1,4.9-1.5,7.6-1.5s5.2,0.5,7.5,1.5
			c2.3,1,4.3,2.3,6.1,4.1c1.7,1.8,3.1,3.8,4.1,6.1c1,2.3,1.4,4.9,1.4,7.6s-0.5,5.2-1.4,7.6c-1,2.3-2.3,4.4-4.1,6.2
			c-1.7,1.8-3.8,3.1-6.1,4.1C110.9,325.9,108.4,326.4,105.7,326.4z M105.7,318.6c2.2,0,4-0.5,5.6-1.6c1.6-1.1,2.8-2.5,3.6-4.2
			c0.8-1.8,1.2-3.7,1.2-5.8s-0.4-4-1.2-5.8c-0.8-1.7-2-3.1-3.6-4.2c-1.6-1-3.4-1.6-5.6-1.6s-4,0.5-5.6,1.6s-2.8,2.4-3.6,4.2
			s-1.3,3.7-1.3,5.8s0.4,4,1.3,5.8s2,3.2,3.6,4.2C101.6,318,103.5,318.6,105.7,318.6z"/>
		<path class="st0" d="M137.1,325.5v-36.7h13.4c3,0,5.5,0.6,7.4,1.7c1.9,1.1,3.3,2.6,4.2,4.4s1.3,3.7,1.3,5.8c0,2.6-0.6,4.8-1.8,6.6
			c-1.2,1.8-2.7,3.1-4.6,4c-1.9,0.9-3.9,1.4-6.1,1.4h-5.7v12.9L137.1,325.5L137.1,325.5z M145.2,305.8h4.8c1.5,0,2.7-0.5,3.6-1.4
			c0.9-1,1.4-2.2,1.4-3.6c0-1.5-0.5-2.8-1.4-3.8c-0.9-1-2.2-1.5-3.7-1.5h-4.8V305.8z"/>
	</g>
	<path d="M194.3,288.7h6.4l10.2,17.4l10-17.4h6.4l1.8,36.7h-6.8l-1.2-25.5l-8.8,15h-3.3l-8.9-14.6l-1.2,25.1h-6.5L194.3,288.7
		L194.3,288.7z"/>
	<path d="M257.9,288.7h7.2l13.9,36.7h-7.7l-3.2-9.3h-13.7l-3.2,9.3H244L257.9,288.7L257.9,288.7z M266.1,310.4l-4.8-14.3l-4.9,14.3
		H266.1z"/>
	<path d="M295.7,288.7h12.2c2.3,0,4.3,0.4,5.9,1c1.6,0.7,2.9,1.6,3.9,2.7c1,1.1,1.7,2.3,2.2,3.6c0.5,1.3,0.7,2.5,0.7,3.7
		c0,2.3-0.5,4.4-1.5,6.1c-1,1.8-2.6,3.2-4.7,4.3l8.5,15.4H315l-7.4-14.5h-5.2v14.5h-6.7L295.7,288.7L295.7,288.7z M307.9,305.2
		c1.8,0,3.1-0.5,4.1-1.5c1-1,1.5-2.3,1.5-3.7c0-1.6-0.5-2.9-1.5-3.9c-1-1-2.4-1.5-4-1.5h-5.6v10.6L307.9,305.2L307.9,305.2z"/>
	<path d="M340.2,288.7h12.2c2.3,0,4.3,0.4,5.9,1c1.6,0.7,2.9,1.6,3.9,2.7c1,1.1,1.7,2.3,2.2,3.6c0.5,1.3,0.7,2.5,0.7,3.7
		c0,2.3-0.5,4.4-1.5,6.1c-1,1.8-2.6,3.2-4.7,4.3l8.5,15.4h-7.8l-7.4-14.5h-5.2v14.5h-6.7L340.2,288.7L340.2,288.7z M352.4,305.2
		c1.8,0,3.1-0.5,4.1-1.5c1-1,1.5-2.3,1.5-3.7c0-1.6-0.5-2.9-1.5-3.9c-1-1-2.4-1.5-4-1.5h-5.6v10.6L352.4,305.2L352.4,305.2z"/>
	<path d="M385.3,288.7h6.9v36.7h-6.9V288.7z"/>
	<path d="M429,326.5c-2.7,0-5.2-0.5-7.5-1.5s-4.3-2.4-6.1-4.2c-1.7-1.8-3.1-3.8-4.1-6.2c-1-2.3-1.5-4.9-1.5-7.5
		c0-2.7,0.5-5.2,1.5-7.5c1-2.3,2.3-4.4,4.1-6.1c1.7-1.7,3.7-3.1,6.1-4.1c2.3-1,4.8-1.5,7.5-1.5s5.2,0.5,7.5,1.5
		c2.3,1,4.3,2.4,6.1,4.1c1.7,1.7,3.1,3.8,4.1,6.1c1,2.3,1.5,4.9,1.5,7.5c0,2.7-0.5,5.2-1.5,7.5c-1,2.3-2.3,4.4-4.1,6.2
		c-1.7,1.8-3.7,3.1-6.1,4.2C434.2,325.9,431.7,326.5,429,326.5z M429,319.9c1.8,0,3.4-0.3,4.9-1c1.5-0.7,2.7-1.6,3.7-2.8
		c1-1.2,1.8-2.6,2.4-4.2c0.6-1.6,0.8-3.2,0.8-5c0-1.7-0.3-3.4-0.8-5c-0.6-1.6-1.3-2.9-2.4-4.1c-1-1.2-2.3-2.1-3.7-2.8
		c-1.5-0.7-3.1-1-4.9-1s-3.5,0.3-4.9,1c-1.5,0.7-2.7,1.6-3.7,2.8c-1,1.2-1.8,2.5-2.4,4.1c-0.6,1.6-0.8,3.2-0.8,5s0.3,3.4,0.8,5
		c0.6,1.6,1.3,3,2.4,4.2c1,1.2,2.3,2.1,3.7,2.8C425.6,319.5,427.2,319.9,429,319.9z"/>
	<path d="M471.2,294.8h-12.5v-6.1h31.8v6.1h-12.5v30.6h-6.9L471.2,294.8L471.2,294.8z"/>
	<path d="M514.1,294.8h-12.5v-6.1h31.8v6.1H521v30.6h-6.9L514.1,294.8L514.1,294.8z"/>
</g>
</svg>
