<svg id="Layer_1" data-name="Layer 1" xmlns="http://www.w3.org/2000/svg" viewBox="0 0 247.93 25.58"><defs><style>.cls-1{fill:#231f20;}</style></defs><title>ShopWithGolf_hor_blk</title><path class="cls-1" d="M186.76,108.26l11.49,7.92-5.57-12.72a4.09,4.09,0,0,0-3.82-2.79,4.41,4.41,0,0,0-2.81,1.06,4.22,4.22,0,0,0-1.32,3.34A4.12,4.12,0,0,0,186.76,108.26Z" transform="translate(-53.57 -94.16)"/><path class="cls-1" d="M198.06,95.62a4,4,0,0,0-4.33.81,4.06,4.06,0,0,0-1,4.15l5.57,12.73s2.25-13.39,2.25-13.39A4.21,4.21,0,0,0,200,97.3,4.35,4.35,0,0,0,198.06,95.62Z" transform="translate(-53.57 -94.16)"/><path class="cls-1" d="M204,116.18l11.5-7.92a4.08,4.08,0,0,0,2-3.19,4.18,4.18,0,0,0-1.31-3.34,4.41,4.41,0,0,0-2.81-1.06,4.11,4.11,0,0,0-3.83,2.79Z" transform="translate(-53.57 -94.16)"/><path class="cls-1" d="M209.53,100.58a4,4,0,0,0-1.06-4.15,4,4,0,0,0-4.32-.81,4.35,4.35,0,0,0-1.93,1.68,4.3,4.3,0,0,0-.55,2.1h1.71a.42.42,0,0,1,.37.23c-.71.45-1.88,1-1.74,2l.17,1.12c.65,3.93,1.76,10.58,1.78,10.58Z" transform="translate(-53.57 -94.16)"/><path class="cls-1" d="M216.49,109.87a4.61,4.61,0,0,0-2.47.76l-10.55,7.28h12.8a4.1,4.1,0,0,0,3.29-1.6,4.16,4.16,0,0,0,.63-3.76A4,4,0,0,0,216.49,109.87Z" transform="translate(-53.57 -94.16)"/><path class="cls-1" d="M185.72,109.87a4,4,0,0,0-3.71,2.68,4.19,4.19,0,0,0,.64,3.76,4.07,4.07,0,0,0,3.29,1.6h12.8l-10.55-7.28A4.61,4.61,0,0,0,185.72,109.87Z" transform="translate(-53.57 -94.16)"/><path class="cls-1" d="M290.31,99.05h8.39a1.21,1.21,0,0,0,1.07-.65l1.73-4H288.15a2.85,2.85,0,0,0-2.85,2.84v20.57l-1.32-3a1.13,1.13,0,0,0-1-.64H274.2V96a1.58,1.58,0,0,0-1.58-1.58h-3.43v3.82a13.63,13.63,0,0,1,1.35,5,12.46,12.46,0,0,0-24.34,1.53h-6.71a1.06,1.06,0,0,0-1,.61l-1.6,3.65h7.51a7.41,7.41,0,0,1-7.16,5.41,7.88,7.88,0,0,1,.07-15.75,9.74,9.74,0,0,1,5.44,2,1,1,0,0,0,1.38-.29l1.75-3a13.12,13.12,0,0,0-8.46-3.22,12.46,12.46,0,1,0-.25,24.91,12.58,12.58,0,0,0,12.18-9.84,11.86,11.86,0,0,1-.82,4.85,12.48,12.48,0,0,0,20.64-1v2.84a2.86,2.86,0,0,0,2.85,2.86h16.68a1.58,1.58,0,0,0,1.59-1.58v-8.12h7.14a1.23,1.23,0,0,0,1.07-.66l1.58-3.61h-9.79Zm-31.78,15.44a7.89,7.89,0,1,1,7.42-7.87A7.66,7.66,0,0,1,258.53,114.49Z" transform="translate(-53.57 -94.16)"/><path class="cls-1" d="M62.06,108.23c-4.75-1-5.62-2.07-5.62-3.9,0-2.29,2.49-3.65,4.9-3.65a9.48,9.48,0,0,1,5.82,2l.44.32.84-1.1.21-.48-.41-.31a11.12,11.12,0,0,0-6.85-2.31c-3.83,0-6.83,2.44-6.83,5.56s2,4.61,7,5.63c4.8,1,5.71,2.15,5.71,4,0,2.26-2.14,3.84-5.2,3.84a9.55,9.55,0,0,1-6.76-2.81l-.39-.38L53.57,116l.48.45a11.4,11.4,0,0,0,8,3.22c4.2,0,7.14-2.36,7.14-5.75C69.15,110.87,67.16,109.27,62.06,108.23Z" transform="translate(-53.57 -94.16)"/><polygon class="cls-1" points="34.62 14.11 22.33 14.11 22.33 4.96 20.45 4.96 20.45 25.25 22.33 25.25 22.33 15.94 34.62 15.94 34.62 25.25 36.5 25.25 36.5 4.96 34.62 4.96 34.62 14.11"/><path class="cls-1" d="M104.41,98.8c-5.75,0-10.09,4.51-10.09,10.5s4.34,10.44,10.09,10.44,10.09-4.51,10.09-10.49S110.17,98.8,104.41,98.8Zm8.21,10.47v0c0,4.9-3.52,8.59-8.18,8.59-5.16,0-8.24-4.42-8.24-8.69,0-4.9,3.52-8.59,8.18-8.59C109.54,100.63,112.62,105,112.62,109.27Z" transform="translate(-53.57 -94.16)"/><path class="cls-1" d="M126.07,99.12h-7.33v20.3h1.89V112H126c5,0,8.06-2.42,8.06-6.48S131,99.12,126.07,99.12Zm-.11,11h-5.33V101H126c3.83,0,6.12,1.7,6.12,4.55v0C132.13,108.46,129.88,110.12,126,110.12Z" transform="translate(-53.57 -94.16)"/><path class="cls-1" d="M151.56,110.06c-.38,0-.84.18-.91,1.06l0,1.39a4,4,0,0,1-.45,1.42,13.24,13.24,0,0,1-1.51,2.17,3.12,3.12,0,0,1-2.46,1.32.8.8,0,0,1-.6-.18.54.54,0,0,1-.11-.44,10.1,10.1,0,0,1,.41-1.72l.71-2.1a4.17,4.17,0,0,0,1.31-2.11.72.72,0,0,0-.2-.58.8.8,0,0,0-.56-.23c-.8,0-1.57,1.25-2.34,3.82l-1.15,1.21c-.14.14-.44.41-1,.9a11,11,0,0,1-1.26,1,1.63,1.63,0,0,1-.74.32.4.4,0,0,1-.26-.08.48.48,0,0,1-.07-.35,3.21,3.21,0,0,1,.23-.85l1.73-4.23a3.51,3.51,0,0,0,.26-1,.6.6,0,0,0-.13-.46.69.69,0,0,0-.5-.17c-.91,0-2,.73-3.23,2.18l-.12.13.43.35.32-.3c.31-.28.56-.49.72-.61a.67.67,0,0,1,.37-.16s.07,0,.08,0a.22.22,0,0,1,0,.15,1.08,1.08,0,0,1-.09.31l-1.68,4.26a4.66,4.66,0,0,0-.28,1.06,1.13,1.13,0,0,0,.18.81.79.79,0,0,0,.67.32,3.68,3.68,0,0,0,2.16-.92c.76-.59,1.38-1.09,1.85-1.5l1-.88a10.07,10.07,0,0,0-.42,1.91,1.39,1.39,0,0,0,.26,1.06,1.24,1.24,0,0,0,.94.33,4.44,4.44,0,0,0,2.24-.77,10,10,0,0,0,2.3-2,15.08,15.08,0,0,0,1.82-2.66,6.5,6.5,0,0,0,.84-2.33.84.84,0,0,0-.17-.68A.75.75,0,0,0,151.56,110.06Z" transform="translate(-53.57 -94.16)"/><path class="cls-1" d="M156.67,110.18a2.19,2.19,0,0,0-1.23.46,13.29,13.29,0,0,0-1.72,1.53l-.13.13.43.37.12-.1a8.86,8.86,0,0,1,.76-.64.69.69,0,0,1,.34-.16.13.13,0,0,1,.09,0l0,.06-.24.63-1.88,4.37c-.08.18-.14.36-.2.53a1.64,1.64,0,0,0-.11.44.84.84,0,0,0,.16.68.73.73,0,0,0,.56.21,1.67,1.67,0,0,0,.83-.26,6.28,6.28,0,0,0,1-.77c.36-.33.63-.57.77-.71s.29-.31.53-.6l.14-.16-.54-.32-.1.11a2.23,2.23,0,0,1-.21.22,3.86,3.86,0,0,1-.39.36,3.67,3.67,0,0,1-.42.34c-.19.11-.32.09-.36,0a.15.15,0,0,1,0-.12.84.84,0,0,1,.08-.24l2.07-4.87.12-.3c.06-.17.1-.27.11-.31a1.43,1.43,0,0,0,.08-.32.59.59,0,0,0-.13-.46A.69.69,0,0,0,156.67,110.18Z" transform="translate(-53.57 -94.16)"/><path class="cls-1" d="M156.79,106.31a1,1,0,0,0-.34.67.89.89,0,0,0,.22.69.87.87,0,0,0,.66.28,1,1,0,0,0,.7-.28,1,1,0,0,0,.33-.67.88.88,0,0,0-.21-.69A1,1,0,0,0,156.79,106.31Z" transform="translate(-53.57 -94.16)"/><path class="cls-1" d="M164.33,104.78v-.11l-.08-.16h-1.1c-.1,0-.23,0-.32.27L161,110.4h-1.59l-.23.79h1.54l-1.78,5.08a5.85,5.85,0,0,0-.3,1.28,1.16,1.16,0,0,0,.21.84.84.84,0,0,0,.7.33c1.07,0,2.33-.87,3.74-2.59l.11-.14-.45-.37-.11.13a9.11,9.11,0,0,1-1.26,1.19c-.62.48-1,.55-1.17.38a.52.52,0,0,1-.07-.37,3.22,3.22,0,0,1,.1-.51c.05-.2.15-.48.27-.82l1.57-4.43h1.88l.23-.79h-1.83Z" transform="translate(-53.57 -94.16)"/><path class="cls-1" d="M173.62,110.47a1.13,1.13,0,0,0-.93-.42,4.4,4.4,0,0,0-2.74,1.24,27,27,0,0,0-2.45,2.37l3.07-9.65,0-.2-.26,0,0,0a6.3,6.3,0,0,1-1,.38,12.78,12.78,0,0,1-1.28.18h-.11l-.19.5.28.13a2.14,2.14,0,0,1,.44.19.14.14,0,0,1,.05.13l-.2,1.3-3.81,11.55,0,.17a.26.26,0,0,0,.07.2.25.25,0,0,0,.19.07h.71c.21,0,.37-.14.49-.42l.34-.89a11.12,11.12,0,0,1,1-2.13,15.91,15.91,0,0,1,2-2.36,3.88,3.88,0,0,1,2.34-1.43.52.52,0,0,1,.42.16,1.17,1.17,0,0,1,.16.89,8.21,8.21,0,0,1-.45,1.83,14.64,14.64,0,0,1-.83,1.93,9.19,9.19,0,0,1-.51.87s-.08,0-.19,0h-.84c-.19,0-.38.15-.57.48a1.8,1.8,0,0,0-.3.69.51.51,0,0,0,.1.38.48.48,0,0,0,.37.13,2.36,2.36,0,0,0,1.5-.76,10.11,10.11,0,0,0,1.6-2,15.24,15.24,0,0,0,1.26-2.43,7.58,7.58,0,0,0,.56-2A1.37,1.37,0,0,0,173.62,110.47Z" transform="translate(-53.57 -94.16)"/></svg>